<svg version="1.1" baseProfile="full" shape-rendering="crispEdges" viewBox="0 0 580 580" xmlns="http://www.w3.org/2000/svg"><rect x="0" y="0" width="580" height="580" fill="#FFFFFF"></rect>
<rect x="80" y="80" width="20" height="20" fill="#000000"></rect>
<rect x="80" y="100" width="20" height="20" fill="#000000"></rect>
<rect x="80" y="120" width="20" height="20" fill="#000000"></rect>
<rect x="80" y="140" width="20" height="20" fill="#000000"></rect>
<rect x="80" y="160" width="20" height="20" fill="#000000"></rect>
<rect x="80" y="180" width="20" height="20" fill="#000000"></rect>
<rect x="80" y="200" width="20" height="20" fill="#000000"></rect>
<rect x="80" y="300" width="20" height="20" fill="#000000"></rect>
<rect x="80" y="360" width="20" height="20" fill="#000000"></rect>
<rect x="80" y="380" width="20" height="20" fill="#000000"></rect>
<rect x="80" y="400" width="20" height="20" fill="#000000"></rect>
<rect x="80" y="420" width="20" height="20" fill="#000000"></rect>
<rect x="80" y="440" width="20" height="20" fill="#000000"></rect>
<rect x="80" y="460" width="20" height="20" fill="#000000"></rect>
<rect x="80" y="480" width="20" height="20" fill="#000000"></rect>
<rect x="100" y="80" width="20" height="20" fill="#000000"></rect>
<rect x="100" y="200" width="20" height="20" fill="#000000"></rect>
<rect x="100" y="240" width="20" height="20" fill="#000000"></rect>
<rect x="100" y="260" width="20" height="20" fill="#000000"></rect>
<rect x="100" y="300" width="20" height="20" fill="#000000"></rect>
<rect x="100" y="320" width="20" height="20" fill="#000000"></rect>
<rect x="100" y="360" width="20" height="20" fill="#000000"></rect>
<rect x="100" y="480" width="20" height="20" fill="#000000"></rect>
<rect x="120" y="80" width="20" height="20" fill="#000000"></rect>
<rect x="120" y="120" width="20" height="20" fill="#000000"></rect>
<rect x="120" y="140" width="20" height="20" fill="#000000"></rect>
<rect x="120" y="160" width="20" height="20" fill="#000000"></rect>
<rect x="120" y="200" width="20" height="20" fill="#000000"></rect>
<rect x="120" y="260" width="20" height="20" fill="#000000"></rect>
<rect x="120" y="320" width="20" height="20" fill="#000000"></rect>
<rect x="120" y="360" width="20" height="20" fill="#000000"></rect>
<rect x="120" y="400" width="20" height="20" fill="#000000"></rect>
<rect x="120" y="420" width="20" height="20" fill="#000000"></rect>
<rect x="120" y="440" width="20" height="20" fill="#000000"></rect>
<rect x="120" y="480" width="20" height="20" fill="#000000"></rect>
<rect x="140" y="80" width="20" height="20" fill="#000000"></rect>
<rect x="140" y="120" width="20" height="20" fill="#000000"></rect>
<rect x="140" y="140" width="20" height="20" fill="#000000"></rect>
<rect x="140" y="160" width="20" height="20" fill="#000000"></rect>
<rect x="140" y="200" width="20" height="20" fill="#000000"></rect>
<rect x="140" y="280" width="20" height="20" fill="#000000"></rect>
<rect x="140" y="320" width="20" height="20" fill="#000000"></rect>
<rect x="140" y="360" width="20" height="20" fill="#000000"></rect>
<rect x="140" y="400" width="20" height="20" fill="#000000"></rect>
<rect x="140" y="420" width="20" height="20" fill="#000000"></rect>
<rect x="140" y="440" width="20" height="20" fill="#000000"></rect>
<rect x="140" y="480" width="20" height="20" fill="#000000"></rect>
<rect x="160" y="80" width="20" height="20" fill="#000000"></rect>
<rect x="160" y="120" width="20" height="20" fill="#000000"></rect>
<rect x="160" y="140" width="20" height="20" fill="#000000"></rect>
<rect x="160" y="160" width="20" height="20" fill="#000000"></rect>
<rect x="160" y="200" width="20" height="20" fill="#000000"></rect>
<rect x="160" y="240" width="20" height="20" fill="#000000"></rect>
<rect x="160" y="260" width="20" height="20" fill="#000000"></rect>
<rect x="160" y="280" width="20" height="20" fill="#000000"></rect>
<rect x="160" y="320" width="20" height="20" fill="#000000"></rect>
<rect x="160" y="360" width="20" height="20" fill="#000000"></rect>
<rect x="160" y="400" width="20" height="20" fill="#000000"></rect>
<rect x="160" y="420" width="20" height="20" fill="#000000"></rect>
<rect x="160" y="440" width="20" height="20" fill="#000000"></rect>
<rect x="160" y="480" width="20" height="20" fill="#000000"></rect>
<rect x="180" y="80" width="20" height="20" fill="#000000"></rect>
<rect x="180" y="200" width="20" height="20" fill="#000000"></rect>
<rect x="180" y="260" width="20" height="20" fill="#000000"></rect>
<rect x="180" y="280" width="20" height="20" fill="#000000"></rect>
<rect x="180" y="300" width="20" height="20" fill="#000000"></rect>
<rect x="180" y="320" width="20" height="20" fill="#000000"></rect>
<rect x="180" y="360" width="20" height="20" fill="#000000"></rect>
<rect x="180" y="480" width="20" height="20" fill="#000000"></rect>
<rect x="200" y="80" width="20" height="20" fill="#000000"></rect>
<rect x="200" y="100" width="20" height="20" fill="#000000"></rect>
<rect x="200" y="120" width="20" height="20" fill="#000000"></rect>
<rect x="200" y="140" width="20" height="20" fill="#000000"></rect>
<rect x="200" y="160" width="20" height="20" fill="#000000"></rect>
<rect x="200" y="180" width="20" height="20" fill="#000000"></rect>
<rect x="200" y="200" width="20" height="20" fill="#000000"></rect>
<rect x="200" y="240" width="20" height="20" fill="#000000"></rect>
<rect x="200" y="280" width="20" height="20" fill="#000000"></rect>
<rect x="200" y="320" width="20" height="20" fill="#000000"></rect>
<rect x="200" y="360" width="20" height="20" fill="#000000"></rect>
<rect x="200" y="380" width="20" height="20" fill="#000000"></rect>
<rect x="200" y="400" width="20" height="20" fill="#000000"></rect>
<rect x="200" y="420" width="20" height="20" fill="#000000"></rect>
<rect x="200" y="440" width="20" height="20" fill="#000000"></rect>
<rect x="200" y="460" width="20" height="20" fill="#000000"></rect>
<rect x="200" y="480" width="20" height="20" fill="#000000"></rect>
<rect x="220" y="260" width="20" height="20" fill="#000000"></rect>
<rect x="220" y="300" width="20" height="20" fill="#000000"></rect>
<rect x="220" y="320" width="20" height="20" fill="#000000"></rect>
<rect x="240" y="120" width="20" height="20" fill="#000000"></rect>
<rect x="240" y="160" width="20" height="20" fill="#000000"></rect>
<rect x="240" y="180" width="20" height="20" fill="#000000"></rect>
<rect x="240" y="200" width="20" height="20" fill="#000000"></rect>
<rect x="240" y="240" width="20" height="20" fill="#000000"></rect>
<rect x="240" y="260" width="20" height="20" fill="#000000"></rect>
<rect x="240" y="280" width="20" height="20" fill="#000000"></rect>
<rect x="240" y="340" width="20" height="20" fill="#000000"></rect>
<rect x="240" y="400" width="20" height="20" fill="#000000"></rect>
<rect x="240" y="460" width="20" height="20" fill="#000000"></rect>
<rect x="260" y="120" width="20" height="20" fill="#000000"></rect>
<rect x="260" y="180" width="20" height="20" fill="#000000"></rect>
<rect x="260" y="240" width="20" height="20" fill="#000000"></rect>
<rect x="260" y="260" width="20" height="20" fill="#000000"></rect>
<rect x="260" y="300" width="20" height="20" fill="#000000"></rect>
<rect x="260" y="320" width="20" height="20" fill="#000000"></rect>
<rect x="260" y="360" width="20" height="20" fill="#000000"></rect>
<rect x="260" y="400" width="20" height="20" fill="#000000"></rect>
<rect x="260" y="440" width="20" height="20" fill="#000000"></rect>
<rect x="260" y="480" width="20" height="20" fill="#000000"></rect>
<rect x="280" y="100" width="20" height="20" fill="#000000"></rect>
<rect x="280" y="140" width="20" height="20" fill="#000000"></rect>
<rect x="280" y="160" width="20" height="20" fill="#000000"></rect>
<rect x="280" y="180" width="20" height="20" fill="#000000"></rect>
<rect x="280" y="200" width="20" height="20" fill="#000000"></rect>
<rect x="280" y="300" width="20" height="20" fill="#000000"></rect>
<rect x="280" y="340" width="20" height="20" fill="#000000"></rect>
<rect x="280" y="480" width="20" height="20" fill="#000000"></rect>
<rect x="300" y="100" width="20" height="20" fill="#000000"></rect>
<rect x="300" y="120" width="20" height="20" fill="#000000"></rect>
<rect x="300" y="140" width="20" height="20" fill="#000000"></rect>
<rect x="300" y="260" width="20" height="20" fill="#000000"></rect>
<rect x="300" y="280" width="20" height="20" fill="#000000"></rect>
<rect x="300" y="300" width="20" height="20" fill="#000000"></rect>
<rect x="300" y="320" width="20" height="20" fill="#000000"></rect>
<rect x="300" y="340" width="20" height="20" fill="#000000"></rect>
<rect x="300" y="380" width="20" height="20" fill="#000000"></rect>
<rect x="300" y="460" width="20" height="20" fill="#000000"></rect>
<rect x="300" y="480" width="20" height="20" fill="#000000"></rect>
<rect x="320" y="80" width="20" height="20" fill="#000000"></rect>
<rect x="320" y="100" width="20" height="20" fill="#000000"></rect>
<rect x="320" y="120" width="20" height="20" fill="#000000"></rect>
<rect x="320" y="140" width="20" height="20" fill="#000000"></rect>
<rect x="320" y="200" width="20" height="20" fill="#000000"></rect>
<rect x="320" y="220" width="20" height="20" fill="#000000"></rect>
<rect x="320" y="240" width="20" height="20" fill="#000000"></rect>
<rect x="320" y="260" width="20" height="20" fill="#000000"></rect>
<rect x="320" y="300" width="20" height="20" fill="#000000"></rect>
<rect x="320" y="320" width="20" height="20" fill="#000000"></rect>
<rect x="320" y="380" width="20" height="20" fill="#000000"></rect>
<rect x="320" y="420" width="20" height="20" fill="#000000"></rect>
<rect x="320" y="440" width="20" height="20" fill="#000000"></rect>
<rect x="320" y="460" width="20" height="20" fill="#000000"></rect>
<rect x="340" y="240" width="20" height="20" fill="#000000"></rect>
<rect x="340" y="260" width="20" height="20" fill="#000000"></rect>
<rect x="340" y="320" width="20" height="20" fill="#000000"></rect>
<rect x="340" y="380" width="20" height="20" fill="#000000"></rect>
<rect x="340" y="400" width="20" height="20" fill="#000000"></rect>
<rect x="340" y="420" width="20" height="20" fill="#000000"></rect>
<rect x="340" y="440" width="20" height="20" fill="#000000"></rect>
<rect x="360" y="80" width="20" height="20" fill="#000000"></rect>
<rect x="360" y="100" width="20" height="20" fill="#000000"></rect>
<rect x="360" y="120" width="20" height="20" fill="#000000"></rect>
<rect x="360" y="140" width="20" height="20" fill="#000000"></rect>
<rect x="360" y="160" width="20" height="20" fill="#000000"></rect>
<rect x="360" y="180" width="20" height="20" fill="#000000"></rect>
<rect x="360" y="200" width="20" height="20" fill="#000000"></rect>
<rect x="360" y="260" width="20" height="20" fill="#000000"></rect>
<rect x="360" y="320" width="20" height="20" fill="#000000"></rect>
<rect x="360" y="360" width="20" height="20" fill="#000000"></rect>
<rect x="360" y="380" width="20" height="20" fill="#000000"></rect>
<rect x="360" y="400" width="20" height="20" fill="#000000"></rect>
<rect x="360" y="420" width="20" height="20" fill="#000000"></rect>
<rect x="360" y="480" width="20" height="20" fill="#000000"></rect>
<rect x="380" y="80" width="20" height="20" fill="#000000"></rect>
<rect x="380" y="200" width="20" height="20" fill="#000000"></rect>
<rect x="380" y="240" width="20" height="20" fill="#000000"></rect>
<rect x="380" y="280" width="20" height="20" fill="#000000"></rect>
<rect x="380" y="300" width="20" height="20" fill="#000000"></rect>
<rect x="380" y="360" width="20" height="20" fill="#000000"></rect>
<rect x="380" y="400" width="20" height="20" fill="#000000"></rect>
<rect x="380" y="460" width="20" height="20" fill="#000000"></rect>
<rect x="380" y="480" width="20" height="20" fill="#000000"></rect>
<rect x="400" y="80" width="20" height="20" fill="#000000"></rect>
<rect x="400" y="120" width="20" height="20" fill="#000000"></rect>
<rect x="400" y="140" width="20" height="20" fill="#000000"></rect>
<rect x="400" y="160" width="20" height="20" fill="#000000"></rect>
<rect x="400" y="200" width="20" height="20" fill="#000000"></rect>
<rect x="400" y="240" width="20" height="20" fill="#000000"></rect>
<rect x="400" y="280" width="20" height="20" fill="#000000"></rect>
<rect x="400" y="300" width="20" height="20" fill="#000000"></rect>
<rect x="400" y="440" width="20" height="20" fill="#000000"></rect>
<rect x="420" y="80" width="20" height="20" fill="#000000"></rect>
<rect x="420" y="120" width="20" height="20" fill="#000000"></rect>
<rect x="420" y="140" width="20" height="20" fill="#000000"></rect>
<rect x="420" y="160" width="20" height="20" fill="#000000"></rect>
<rect x="420" y="200" width="20" height="20" fill="#000000"></rect>
<rect x="420" y="260" width="20" height="20" fill="#000000"></rect>
<rect x="420" y="280" width="20" height="20" fill="#000000"></rect>
<rect x="420" y="300" width="20" height="20" fill="#000000"></rect>
<rect x="420" y="320" width="20" height="20" fill="#000000"></rect>
<rect x="420" y="360" width="20" height="20" fill="#000000"></rect>
<rect x="420" y="440" width="20" height="20" fill="#000000"></rect>
<rect x="420" y="460" width="20" height="20" fill="#000000"></rect>
<rect x="440" y="80" width="20" height="20" fill="#000000"></rect>
<rect x="440" y="120" width="20" height="20" fill="#000000"></rect>
<rect x="440" y="140" width="20" height="20" fill="#000000"></rect>
<rect x="440" y="160" width="20" height="20" fill="#000000"></rect>
<rect x="440" y="200" width="20" height="20" fill="#000000"></rect>
<rect x="440" y="240" width="20" height="20" fill="#000000"></rect>
<rect x="440" y="300" width="20" height="20" fill="#000000"></rect>
<rect x="440" y="320" width="20" height="20" fill="#000000"></rect>
<rect x="440" y="380" width="20" height="20" fill="#000000"></rect>
<rect x="440" y="400" width="20" height="20" fill="#000000"></rect>
<rect x="440" y="420" width="20" height="20" fill="#000000"></rect>
<rect x="440" y="480" width="20" height="20" fill="#000000"></rect>
<rect x="460" y="80" width="20" height="20" fill="#000000"></rect>
<rect x="460" y="200" width="20" height="20" fill="#000000"></rect>
<rect x="460" y="260" width="20" height="20" fill="#000000"></rect>
<rect x="460" y="280" width="20" height="20" fill="#000000"></rect>
<rect x="460" y="300" width="20" height="20" fill="#000000"></rect>
<rect x="460" y="320" width="20" height="20" fill="#000000"></rect>
<rect x="460" y="420" width="20" height="20" fill="#000000"></rect>
<rect x="460" y="460" width="20" height="20" fill="#000000"></rect>
<rect x="460" y="480" width="20" height="20" fill="#000000"></rect>
<rect x="480" y="80" width="20" height="20" fill="#000000"></rect>
<rect x="480" y="100" width="20" height="20" fill="#000000"></rect>
<rect x="480" y="120" width="20" height="20" fill="#000000"></rect>
<rect x="480" y="140" width="20" height="20" fill="#000000"></rect>
<rect x="480" y="160" width="20" height="20" fill="#000000"></rect>
<rect x="480" y="180" width="20" height="20" fill="#000000"></rect>
<rect x="480" y="200" width="20" height="20" fill="#000000"></rect>
<rect x="480" y="280" width="20" height="20" fill="#000000"></rect>
<rect x="480" y="360" width="20" height="20" fill="#000000"></rect>
<rect x="480" y="400" width="20" height="20" fill="#000000"></rect>
<rect x="480" y="420" width="20" height="20" fill="#000000"></rect>
<rect x="480" y="480" width="20" height="20" fill="#000000"></rect>
</svg>